<?xml version="1.0" standalone="no"?><!DOCTYPE svg PUBLIC "-//W3C//DTD SVG 1.1//EN" "http://www.w3.org/Graphics/SVG/1.1/DTD/svg11.dtd"><svg t="1733987414436" class="icon" viewBox="0 0 1024 1024" version="1.1" xmlns="http://www.w3.org/2000/svg" p-id="14074" xmlns:xlink="http://www.w3.org/1999/xlink" width="200" height="200"><path d="M0 511.232a511.104 511.104 0 0 0 511.872 511.232 511.104 511.104 0 0 0 511.872-511.232C1023.744 228.544 794.24 0 511.872 0S0 228.48 0 511.232z m647.552 130.176L460.992 566.144c-4.864-2.88-15.296-9.792-11.904-26.112 2.24-10.88 13.888-116.48 34.944-316.8 4.224-16.384 15.04-31.296 31.104-31.296 16 0 28.416 13.44 28.416 31.296l29.184 261.248a64 64 0 0 0 26.112 44.8l94.4 68.16c12.48 12.48 13.696 32.64 1.792 43.968-11.328 11.264-25.536 9.984-47.488 0z" fill="#E84A4A" p-id="14075"></path></svg>