<?xml version="1.0" standalone="no"?><!DOCTYPE svg PUBLIC "-//W3C//DTD SVG 1.1//EN" "http://www.w3.org/Graphics/SVG/1.1/DTD/svg11.dtd"><svg t="1734180083098" class="icon" viewBox="0 0 1024 1024" version="1.1" xmlns="http://www.w3.org/2000/svg" p-id="3368" data-spm-anchor-id="a313x.search_index.0.i2.79b63a81Hif42L" xmlns:xlink="http://www.w3.org/1999/xlink" width="200" height="200"><path d="M512.4 917c224.3 0 406.1-181.8 406.1-406.1S736.7 104.8 512.4 104.8 106.3 286.6 106.3 510.9C106.4 735.2 288.2 917 512.4 917zM429 742.4c-9.1 0-18.1-3.5-25.1-10.4L246.7 575c-13.9-13.8-13.9-36.3 0-50.2 13.8-13.9 36.3-13.9 50.2 0L429 656.7l314.5-314c13.9-13.9 36.3-13.8 50.2 0 13.8 13.9 13.8 36.3 0 50.2L454.1 732c-7 6.9-16 10.4-25.1 10.4z m0 0" p-id="3369" fill="#F2AD24" data-spm-anchor-id="a313x.search_index.0.i1.79b63a81Hif42L" class="selected"></path></svg>